<?xml version="1.0" encoding="UTF-8" standalone="no"?>
<svg
   xmlns:dc="http://purl.org/dc/elements/1.1/"
   xmlns:cc="http://creativecommons.org/ns#"
   xmlns:rdf="http://www.w3.org/1999/02/22-rdf-syntax-ns#"
   xmlns:svg="http://www.w3.org/2000/svg"
   xmlns="http://www.w3.org/2000/svg"
   width="256pt"
   height="256pt"
   viewBox="0 0 256 256"
   version="1.1"
   id="svg7">
  <metadata
     id="metadata13">
    <rdf:RDF>
      <cc:Work
         rdf:about="">
        <dc:format>image/svg+xml</dc:format>
        <dc:type
           rdf:resource="http://purl.org/dc/dcmitype/StillImage" />
        <dc:title></dc:title>
      </cc:Work>
    </rdf:RDF>
  </metadata>
  <defs
     id="defs11" />
  <g
     id="surface1"
     style="fill:#00abcd;fill-opacity:1">
    <path
       style="stroke:none;fill-rule:nonzero;fill:#00abcd;fill-opacity:1"
       d="M 127.976562 0.03125 C 93.605469 0.03125 62.03125 13.128906 37.671875 37.484375 C 13.316406 61.839844 0.21875 93.417969 0.21875 127.789062 C 0.21875 162.160156 13.316406 193.734375 37.671875 218.089844 C 58.125 238.542969 83.6875 251.058594 112.617188 254.78125 C 123.976562 256.246094 141.390625 255.503906 153.804688 253.03125 C 198.496094 244.125 236.679688 209.507812 250.0625 165.765625 C 264.101562 119.871094 252.058594 71.261719 218.28125 37.484375 C 193.921875 13.128906 162.347656 0.03125 127.976562 0.03125 Z M 126.8125 10.050781 C 145.300781 9.882812 163.777344 14.070312 180.617188 22.507812 C 203.695312 34.070312 221.695312 52.066406 233.257812 75.148438 C 249.878906 108.324219 249.878906 147.253906 233.257812 180.429688 C 227.457031 192.003906 221.679688 200.144531 212.476562 209.703125 C 193.003906 229.929688 167.222656 242.261719 138.546875 245.0625 C 117.160156 247.152344 95.089844 242.964844 75.335938 233.066406 C 63.757812 227.269531 55.621094 221.492188 46.0625 212.289062 C 9.191406 176.796875 -0.304688 121.058594 22.695312 75.148438 C 36.523438 47.550781 60.273438 26.671875 89.363281 16.546875 C 101.507812 12.320312 114.164062 10.167969 126.8125 10.050781 Z M 126.8125 10.050781 "
       id="path2" />
    <path
       style="stroke:none;fill-rule:nonzero;fill:#00abcd;fill-opacity:1"
       d="M 132.273438 30.972656 C 140.691406 31.683594 146.808594 33.257812 154.394531 37.046875 C 176.386719 48.042969 189.753906 70.257812 195.554688 93.480469 C 197.300781 100.460938 198.601562 107.90625 198.636719 115.101562 C 198.636719 115.101562 199.101562 121.132812 199.101562 121.132812 C 199.101562 121.132812 198.636719 129.175781 198.636719 129.175781 C 198.503906 140.699219 193.960938 156.332031 189.378906 166.882812 C 188.496094 168.90625 184.84375 176.441406 183.289062 177.449219 C 182.332031 178.066406 180.652344 177.945312 179.53125 177.945312 C 179.53125 177.945312 77.976562 177.945312 77.976562 177.945312 C 76.855469 177.945312 75.175781 178.066406 74.222656 177.449219 C 73.195312 176.785156 72.074219 174.527344 71.441406 173.421875 C 69.597656 170.191406 68.015625 166.820312 66.640625 163.363281 C 62.890625 153.992188 58.992188 139.246094 58.871094 129.175781 C 58.871094 129.175781 58.410156 121.132812 58.410156 121.132812 C 58.410156 121.132812 58.871094 113.089844 58.871094 113.089844 C 58.9375 107.800781 60.648438 98.714844 61.953125 93.480469 C 67.414062 71.632812 79.925781 49.867188 100.097656 38.609375 C 106.816406 34.859375 114.054688 32.226562 121.714844 31.285156 C 121.714844 31.285156 127.246094 30.972656 127.246094 30.972656 C 129.886719 30.585938 129.902344 30.929688 132.273438 30.972656 Z M 165.457031 131.1875 C 174.160156 131.171875 179.015625 126.316406 179.03125 117.613281 C 179.03125 117.613281 179.03125 87.953125 179.03125 87.953125 C 179.011719 73.558594 170.328125 58.734375 158.921875 50.324219 C 151.644531 44.960938 141.417969 40.738281 132.273438 40.691406 C 132.273438 40.691406 124.734375 40.691406 124.734375 40.691406 C 109.027344 40.878906 93.40625 51.789062 85.421875 64.824219 C 82.375 69.800781 79.253906 77.566406 78.980469 83.425781 C 80.386719 83.542969 83.5625 84.28125 84.648438 83.425781 C 85.808594 82.515625 86.222656 76.832031 89.128906 75.4375 C 91.058594 74.511719 96.441406 77.398438 99.09375 77.894531 C 98.367188 83.367188 98.09375 83.179688 95.574219 87.953125 C 95.574219 87.953125 101.605469 92.511719 101.605469 92.511719 C 102.589844 93.371094 103.671875 94.628906 105.125 94.402344 C 106.914062 94.128906 110.828125 89.480469 113.585938 90.582031 C 114.652344 91.007812 115.644531 92.546875 116.257812 93.480469 C 116.785156 94.292969 118.871094 97.507812 118.90625 98.296875 C 119.046875 101.292969 112.054688 103.546875 111.550781 105.179688 C 111.242188 106.1875 112.007812 108.070312 112.328125 109.066406 C 113.074219 111.390625 113.472656 113.164062 113.671875 115.601562 C 116.292969 115.59375 121.476562 114.796875 123.425781 116.890625 C 124.699219 118.253906 124.578125 126.074219 123.058594 127.167969 C 120.886719 128.71875 116.539062 127.796875 114.175781 127.167969 C 114.175781 127.167969 113.167969 131.1875 113.167969 131.1875 C 113.167969 131.1875 165.457031 131.1875 165.457031 131.1875 Z M 136.296875 49.238281 C 136.296875 49.238281 138.308594 57.785156 138.308594 57.785156 C 138.308594 57.785156 145.847656 59.257812 145.847656 59.257812 C 145.847656 59.257812 150.875 61.0625 150.875 61.0625 C 150.875 61.0625 158.417969 56.78125 158.417969 56.78125 C 160.78125 59.355469 162.835938 61.738281 164.515625 64.824219 C 165.042969 65.789062 165.816406 67.167969 165.550781 68.296875 C 165.074219 70.351562 160.75 72.550781 158.921875 73.371094 C 158.921875 73.371094 159.835938 80.410156 159.835938 80.410156 C 159.835938 80.410156 159.265625 85.835938 159.265625 85.835938 C 159.265625 85.835938 165.457031 91.472656 165.457031 91.472656 C 164.546875 94.347656 162.027344 98.375 159.90625 100.511719 C 159.144531 101.273438 158.046875 102.394531 156.910156 102.476562 C 154.835938 102.625 151.359375 99.179688 150.375 97.503906 C 147.910156 98.90625 146.144531 99.898438 143.335938 100.511719 C 142.027344 100.800781 138.832031 101.039062 137.960938 101.613281 C 136.25 102.738281 136.191406 107.222656 134.4375 108.820312 C 133.390625 109.660156 131.96875 109.15625 130.765625 108.820312 C 127.40625 108.140625 124.21875 106.710938 121.214844 105.046875 C 121.625 103.632812 123.542969 98.007812 123.339844 97 C 123.054688 95.566406 120.960938 93.789062 120.023438 92.476562 C 120.023438 92.476562 116.839844 86.644531 116.839844 86.644531 C 115.636719 85.421875 109.976562 85.4375 108.140625 85.4375 C 107.472656 77.203125 106.976562 80.203125 108.140625 71.359375 C 108.140625 71.359375 117.191406 71.863281 117.191406 71.863281 C 117.191406 71.863281 120.816406 65.328125 120.816406 65.328125 C 120.816406 65.328125 124.4375 61.09375 124.4375 61.09375 C 124.4375 61.09375 122.722656 53.261719 122.722656 53.261719 C 127.609375 50.554688 130.863281 49.957031 136.296875 49.238281 Z M 129.019531 71.40625 C 122.148438 79.605469 128.449219 92.179688 139.3125 90.878906 C 154.246094 89.085938 152.320312 66.289062 136.800781 67.488281 C 133.6875 68.074219 131.136719 68.882812 129.019531 71.40625 Z M 78.480469 118.621094 C 78.570312 125.890625 83.777344 131.097656 91.046875 131.1875 C 92.367188 131.203125 95.75 131.410156 96.753906 130.691406 C 99.277344 128.886719 99.625 121.5 99.59375 118.621094 C 99.460938 107.277344 89.617188 98.253906 78.480469 98.007812 C 78.480469 98.007812 78.480469 118.621094 78.480469 118.621094 Z M 80.992188 149.289062 C 80.992188 149.289062 80.992188 164.371094 80.992188 164.371094 C 80.992188 164.371094 116.1875 164.371094 116.1875 164.371094 C 116.1875 164.371094 116.1875 149.289062 116.1875 149.289062 C 116.1875 149.289062 80.992188 149.289062 80.992188 149.289062 Z M 141.324219 149.289062 C 141.324219 149.289062 141.324219 164.371094 141.324219 164.371094 C 141.324219 164.371094 176.515625 164.371094 176.515625 164.371094 C 176.515625 164.371094 176.515625 149.289062 176.515625 149.289062 C 176.515625 149.289062 141.324219 149.289062 141.324219 149.289062 Z M 178.023438 184.984375 C 175.273438 190.132812 169.097656 195.472656 164.449219 198.996094 C 142.65625 215.535156 114.855469 215.535156 93.058594 198.996094 C 88.414062 195.472656 82.234375 190.132812 79.484375 184.984375 C 79.484375 184.984375 178.023438 184.984375 178.023438 184.984375 Z M 178.023438 184.984375 "
       id="path4" />
  </g>
</svg>
